<svg width="512" height="512" viewBox="0 0 512 512" fill="none" xmlns="http://www.w3.org/2000/svg">
<path d="M256 512C397.391 512 512 397.391 512 256C512 114.609 397.391 0 256 0C114.609 0 0 114.609 0 256C0 397.391 114.609 512 256 512ZM256 40C375.297 40 472 136.703 472 256C472 375.297 375.297 472 256 472C136.703 472 40 375.297 40 256C40 136.703 136.703 40 256 40Z" fill="black"/>
<path d="M206.688 363.312C212.938 369.562 223.063 369.562 229.313 363.312L325.313 267.312C331.563 261.062 331.563 250.937 325.313 244.687L229.313 148.687C226.188 145.562 222.094 144 218 144C213.906 144 209.812 145.562 206.688 148.688C200.438 154.938 200.438 165.063 206.688 171.313L291.375 256L206.687 340.688C200.438 346.938 200.438 357.062 206.688 363.312Z" fill="black"/>
</svg>
